# xmcd
#
# Track frame offsets: 
#        150
#        21097
#        52555
#        77158
#        96818
#        114284
#        137580
#        167753
#        189451
#        214528
#        230250
#
# Disc length: 3465 seconds
#
# Revision: 0
# Processed by: cddbd v1.5.2PL0 Copyright (c) Steve Scherf et al.
# Submitted via: ExactAudioCopy v1.0b4
#
DISCID=7c0d870b
DTITLE=Georgia Blues Dawgs - Basically Blue
DYEAR=2013
DGENRE=Blues Rock
TTITLE0=True Blue
TTITLE1=I Can't Refuse
TTITLE2=Lies
TTITLE3=Let Me Love Your
TTITLE4=Hard Times
TTITLE5=Don't Be Cruel
TTITLE6=Knocking At Your Door
TTITLE7=Defin Your Terms
TTITLE8=Love Affair Gone Bad
TTITLE9=You Should Be Ashamed
TTITLE10=I Languish For You
EXTD=
EXTT0=
EXTT1=
EXTT2=
EXTT3=
EXTT4=
EXTT5=
EXTT6=
EXTT7=
EXTT8=
EXTT9=
EXTT10=
PLAYORDER=
